<svg xmlns="http://www.w3.org/2000/svg" xmlns:xlink="http://www.w3.org/1999/xlink" width="493.79" height="267.189" viewBox="0 0 493.79 267.189">
  <defs>
    <linearGradient id="linear-gradient" x1="0.5" y1="1" x2="0.5" gradientUnits="objectBoundingBox">
      <stop offset="0" stop-color="#ed2e2d"/>
      <stop offset="1" stop-color="#fc9191"/>
    </linearGradient>
    <linearGradient id="linear-gradient-2" x1="0.5" y1="1" x2="0.5" gradientUnits="objectBoundingBox">
      <stop offset="0" stop-color="#e96f6f"/>
      <stop offset="1" stop-color="#f9ebec"/>
    </linearGradient>
  </defs>
  <g id="Group_167" data-name="Group 167" transform="translate(-1805.244 -3397)">
    <g id="Group_13" data-name="Group 13" transform="translate(1805.244 3448.318)">
      <path id="Path_306" data-name="Path 306" d="M626.191,416.24c-57.76-4.27-68.471-55.211-124.26-66.909-61.473-12.89-79.652,42.42-144.44,29.738-45.765-8.959-50.869-39.333-113.639-63.724A264.767,264.767,0,0,0,181.4,299.588V495.873a19.586,19.586,0,0,0,19.586,19.586H655.6a19.585,19.585,0,0,0,19.585-19.586V408.3C661.6,413.609,644.864,417.621,626.191,416.24Z" transform="translate(-181.398 -299.588)" fill="url(#linear-gradient)"/>
    </g>
    <g id="Group_15" data-name="Group 15" transform="translate(1805.244 3446.244)" opacity="0.8">
      <g id="Group_14" data-name="Group 14" transform="translate(0 0)">
        <path id="Path_307" data-name="Path 307" d="M532.73,422.578c-14.868-2.314-20.813-7.739-43.544-9.558-37.628-3.012-48.739,9.66-70.1,8.5C363.853,418.5,353.2,298.528,307.575,297.489c-35.164-.8-45.945,51.924-96.647,58.413a82.61,82.61,0,0,1-29.531-1.733v141.67a19.586,19.586,0,0,0,19.586,19.586H655.6a19.585,19.585,0,0,0,19.585-19.586V334.763C643.748,389.043,582.693,430.354,532.73,422.578Z" transform="translate(-181.398 -297.48)" fill="url(#linear-gradient-2)"/>
      </g>
    </g>
    <path id="Path_308" data-name="Path 308" d="M340.538,274.731H286.462c-8.235,0-14.911-5.944-14.911-13.275s6.676-13.276,14.911-13.276h54.076c8.235,0,14.911,5.944,14.911,13.276S348.773,274.731,340.538,274.731Z" transform="translate(1622.449 3148.82)" fill="#c6c6c6"/>
    <text id="_70y_o" data-name="&gt;70y/o" transform="translate(1909 3417)" fill="#fff" font-size="17" font-family="Roboto-Regular, Roboto"><tspan x="0" y="0">&gt;70y/o</tspan></text>
    <text id="_1995" data-name="1995" transform="translate(2086.637 3463.766)" fill="#fff" font-size="17" font-family="Roboto-Regular, Roboto"><tspan x="0" y="0">1995</tspan></text>
    <path id="Path_520" data-name="Path 520" d="M340.538,274.731H286.462c-8.235,0-14.911-5.944-14.911-13.275s6.676-13.276,14.911-13.276h54.076c8.235,0,14.911,5.944,14.911,13.276S348.773,274.731,340.538,274.731Z" transform="translate(1796.449 3210.586)" fill="#c6c6c6"/>
    <text id="_70y_o-2" data-name="&lt;70y/o" transform="translate(2083 3478.766)" fill="#fff" font-size="17" font-family="Roboto-Regular, Roboto"><tspan x="0" y="0">&lt;70y/o</tspan></text>
  </g>
</svg>
