<svg xmlns="http://www.w3.org/2000/svg" width="1994.273" height="334.652" viewBox="0 0 1994.273 334.652">
  <g id="Group_179" data-name="Group 179" transform="translate(-1224.787 -110.107)">
    <g id="Group_180" data-name="Group 180" transform="translate(487 -39)">
      <path id="Path_288" data-name="Path 288" d="M1479.6,427.112c12.969,0,16.122-4.108,23.261-51.587,4.1-27.237,8.329-63.244,12.85-101.4,6.306-53.66,14.516-123.121,21.714-154.207,8.09,14.8,18.8,38.006,27.96,58.027,37.062,80.712,56.991,119.347,79.3,124.75a74.194,74.194,0,0,0,34.92.777c12.375-2.146,74.363-3.96,93.876-3.96,6.571,0,11.9-3.314,11.9-7.4s-5.327-7.4-11.9-7.4c-14.754,0-82.751,1.443-100.3,4.515a38.042,38.042,0,0,1-19.87-.333c-14.991-6.106-46.343-74.273-65.022-115.017-33.552-73.014-39.085-81.415-54.077-81.415-12.909,0-17.847,3-27.008,61.912-5.116,32.973-10.292,76.53-15.229,118.643-5.533,46.85-11.9,102.731-17.49,128.672-6.723-9.4-14.813-22.722-21.357-33.528-19.215-31.493-39.026-64.1-58.122-75.2-44.142-25.9-89.83-12.471-114.34-5.366a112.08,112.08,0,0,1-15.409,3.7c-14.872,0-27.127-9.955-38.965-19.614-12.85-10.473-26.176-21.316-45.986-21.316-26.473,0-43.666,13.952-57.408,25.128a118.827,118.827,0,0,1-12.493,9.326c-20.465,11.916-26.949,9.548-38.728,5.292-9.875-3.7-23.38-8.474-43.309-4.441a32.093,32.093,0,0,0-8.329,3.294c-9.935,4.959-24.927,12.434-48.96-1.591-6.246-3.923-28.793-33.491-45.272-55.066-49.02-64.281-55.683-69.869-67.938-69.869s-14.039,4.626-23.8,33.306c-5.592,16.838-12.434,39.56-19.691,63.615C803.914,294,789.4,342.07,779.523,366.68c-1.189-2.59-2.32-5.218-3.391-7.7-19.631-45.185-38.788-82.673-75.314-83.6a114.558,114.558,0,0,0-31.59,5,92.446,92.446,0,0,1-20.941,3.7c-6.571,0-11.9,3.314-11.9,7.4s5.327,7.4,11.9,7.4a117.96,117.96,0,0,0,30.1-5.033,86.266,86.266,0,0,1,21.477-3.7c22.011.555,43.9,51.069,53.541,72.644,10.827,25.017,13.742,31.715,26.473,31.715s16.657-4.589,31.173-46.776c8.388-24.276,17.847-55.51,26.949-85.782,8.626-28.569,17.847-59.988,24.272-76.715,11.9,13.026,29.269,36.23,42.178,53.142,28.674,37.636,42.179,54.659,50.447,59.507,39.145,22.833,70.02,7.4,80.133,2.294.774-.333,1.368-.666,1.9-.925,8.686-1.554,13.921,0,22.844,3.368,17.847,6.4,36.171,10.695,67.046-7.4a122.12,122.12,0,0,0,15.051-11.1c11.184-9.067,23.8-19.354,38.55-19.354,8.031,0,17.847,7.882,27.068,15.506,13.921,11.324,31.232,25.424,57.943,25.424a95.221,95.221,0,0,0,25.4-5.218c24.807-7.4,55.623-16.172,88.045,2.739,15.051,8.771,35.694,42.521,52.054,69.61C1456.224,415.121,1464.2,427.112,1479.6,427.112Z" transform="translate(946.678 56.647)" fill="#f1cfce"/>
      <path id="Path_289" data-name="Path 289" d="M1461.852,396.408c9.787,0,12.167-3.731,17.554-46.888,3.1-24.7,6.285-57.442,9.7-92.062,4.759-48.737,10.954-111.825,16.387-140.025,6.106,13.445,14.187,34.485,21.1,52.669,27.969,73.307,43.01,108.4,59.845,113.3a46.832,46.832,0,0,0,26.353.706c9.339-1.949,56.119-3.6,70.845-3.6,4.959,0,8.979-3.01,8.979-6.722s-4.02-6.722-8.979-6.722c-11.134,0-62.449,1.311-75.693,4.1a24.047,24.047,0,0,1-15-.3c-11.313-5.546-34.973-67.458-49.07-104.464-25.321-66.315-29.5-73.945-40.81-73.945-9.742,0-13.469,2.723-20.382,56.232-3.861,29.948-7.767,69.508-11.493,107.725-4.175,42.586-8.979,93.305-13.2,116.9-5.028-8.537-11.179-20.6-16.117-30.452-14.5-28.6-29.451-58.215-43.863-68.3-33.312-23.528-67.792-11.327-86.288-4.874a72.9,72.9,0,0,1-11.628,3.361c-11.224,0-20.472-9.042-29.406-17.814-9.7-9.512-19.754-19.36-34.7-19.36-19.978,0-32.908,12.672-43.324,22.822a84.237,84.237,0,0,1-9.428,8.437c-15.444,10.856-20.337,8.705-29.227,4.84-7.452-3.361-17.644-7.7-32.684-4.033a22.018,22.018,0,0,0-6.285,2.991c-7.5,4.5-18.812,11.293-36.949-1.445-4.714-3.563-21.729-30.418-34.165-50.014-36.994-58.383-42.022-63.458-51.27-63.458s-10.595,4.2-17.958,30.25c-4.22,15.293-9.383,35.931-14.86,57.778-7.9,31.46-18.856,75.122-26.308,97.473-.9-2.353-1.751-4.739-2.559-6.991-14.815-41.04-29.317-75.088-56.837-75.928a73.808,73.808,0,0,0-23.839,4.538,58.836,58.836,0,0,1-15.8,3.361c-4.959,0-8.979,3.01-8.979,6.722s4.02,6.722,8.979,6.722a75.468,75.468,0,0,0,22.716-4.571,54.957,54.957,0,0,1,16.207-3.361c16.611.5,33.133,46.384,40.406,65.979,8.171,22.721,10.371,28.8,19.978,28.8s12.571-4.168,23.525-42.485c6.33-22.049,13.468-50.417,20.338-77.945,6.51-25.948,13.468-54.451,18.318-69.643,8.979,11.831,22.088,32.906,31.831,48.266,21.639,34.183,31.786,49.644,38.071,54.047,29.541,20.738,52.841,6.722,60.474,2.084.583-.3,1.032-.6,1.437-.84,6.555-1.412,10.505,0,17.24,3.059,13.468,5.815,27.3,9.68,50.6-6.722a96.072,96.072,0,0,0,11.358-10.084c8.441-8.2,17.958-17.545,29.092-17.545,6.061,0,13.469,7.159,20.427,14.083,10.506,10.285,23.57,23.091,43.728,23.091a61.469,61.469,0,0,0,19.17-4.739c18.721-6.722,41.977-14.688,66.444,2.487,11.359,7.966,26.937,38.62,39.328,63.257C1444.209,385.518,1450.269,396.408,1461.852,396.408Z" transform="translate(-87.723 87.35)" fill="#f1cfce"/>
    </g>
  </g>
</svg>
