<svg xmlns="http://www.w3.org/2000/svg" xmlns:xlink="http://www.w3.org/1999/xlink" width="460.179" height="341.268" viewBox="0 0 460.179 341.268">
  <defs>
    <linearGradient id="linear-gradient" x1="0.5" y1="1" x2="0.5" gradientUnits="objectBoundingBox">
      <stop offset="0" stop-color="#e96f6f"/>
      <stop offset="0.52" stop-color="#fc9191"/>
      <stop offset="1" stop-color="#f9ebec"/>
    </linearGradient>
    <linearGradient id="linear-gradient-2" x1="4.311" y1="1" x2="4.311" y2="0" xlink:href="#linear-gradient"/>
    <linearGradient id="linear-gradient-3" x1="0.5" y1="1" x2="0.5" gradientUnits="objectBoundingBox">
      <stop offset="0" stop-color="#343433"/>
      <stop offset="0.674" stop-color="#b3b3b3"/>
      <stop offset="1" stop-color="#f9ebec"/>
    </linearGradient>
  </defs>
  <g id="Group_167" data-name="Group 167" transform="translate(-255 -2720.769)">
    <g id="Group_50" data-name="Group 50" transform="translate(255 2792.568)">
      <rect id="Rectangle_1106" data-name="Rectangle 1106" width="324.466" height="2.092" transform="translate(71.902 238.359)" fill="#e2e2e2"/>
      <rect id="Rectangle_1107" data-name="Rectangle 1107" width="324.466" height="2.092" transform="translate(71.902 179.579)" fill="#e2e2e2"/>
      <rect id="Rectangle_1108" data-name="Rectangle 1108" width="324.466" height="2.092" transform="translate(71.902 120.799)" fill="#e2e2e2"/>
      <rect id="Rectangle_1109" data-name="Rectangle 1109" width="324.466" height="2.092" transform="translate(71.902 63.269)" fill="#e2e2e2"/>
      <rect id="Rectangle_1110" data-name="Rectangle 1110" width="324.466" height="2.092" transform="translate(71.902 4.489)" fill="#e2e2e2"/>
      <path id="Path_373" data-name="Path 373" d="M282.684,405.79c-9.435,0-17.082,4.6-17.074,10.27v58.187h34.162V416.06C299.772,410.388,292.122,405.79,282.684,405.79Z" transform="translate(-162.507 -234.803)" fill="url(#linear-gradient)"/>
      <path id="Path_377" data-name="Path 377" d="M649.986,325.18a17.088,17.088,0,0,1,17.088,17.088V553.024H632.94V342.268a17.088,17.088,0,0,1,17.046-17.088Z" transform="translate(-366.005 -313.581)" fill="url(#linear-gradient-2)"/>
      <path id="Path_469" data-name="Path 469" d="M282.684,405.79c-9.435,0-17.082,3.343-17.074,7.464v42.291h34.162V413.254C299.772,409.132,292.122,405.79,282.684,405.79Z" transform="translate(-111.778 -216.102)" fill="url(#linear-gradient-3)"/>
      <path id="Path_470" data-name="Path 470" d="M282.684,405.79c-9.435,0-17.082,8.29-17.074,18.511V529.182h34.162V424.3C299.772,414.078,292.122,405.79,282.684,405.79Z" transform="translate(52.026 -289.738)" fill="url(#linear-gradient-3)"/>
      <text id="_50-69" data-name="50-69" transform="translate(285.779 265.468)" fill="gray" font-size="16" font-family="Roboto-Medium, Roboto" font-weight="500"><tspan x="0" y="0">50-69</tspan></text>
      <text id="_34-49" data-name="34-49" transform="translate(120.974 265.468)" fill="gray" font-size="16" font-family="Roboto-Medium, Roboto" font-weight="500"><tspan x="0" y="0">34-49</tspan></text>
      <text id="_0" data-name="0" transform="translate(12.273 232.909)" fill="gray" font-size="13" font-family="Roboto-Regular, Roboto"><tspan x="0" y="0">0</tspan></text>
      <text id="_100" data-name="100" transform="translate(0 203.856)" fill="gray" font-size="12" font-family="Roboto-Regular, Roboto"><tspan x="0" y="0">100</tspan></text>
      <text id="_200" data-name="200" transform="translate(1.753 177.558)" fill="gray" font-size="12" font-family="Roboto-Regular, Roboto"><tspan x="0" y="0">200</tspan></text>
      <text id="_300" data-name="300" transform="translate(0 149.506)" fill="gray" font-size="12" font-family="Roboto-Regular, Roboto"><tspan x="0" y="0">300</tspan></text>
      <text id="_400" data-name="400" transform="translate(0 121.455)" fill="gray" font-size="12" font-family="Roboto-Regular, Roboto"><tspan x="0" y="0">400</tspan></text>
      <text id="_600" data-name="600" transform="translate(0 67.104)" fill="gray" font-size="12" font-family="Roboto-Regular, Roboto" opacity="0.7"><tspan x="0" y="0">600</tspan></text>
      <text id="_700" data-name="700" transform="translate(0 39.052)" fill="gray" font-size="12" font-family="Roboto-Regular, Roboto"><tspan x="0" y="0">700</tspan></text>
      <text id="_800" data-name="800" transform="translate(0 11)" fill="gray" font-size="12" font-family="Roboto-Regular, Roboto"><tspan x="0" y="0">800</tspan></text>
      <text id="_500" data-name="500" transform="translate(0 93.402)" fill="gray" font-size="12" font-family="Roboto-Regular, Roboto"><tspan x="0" y="0">500</tspan></text>
    </g>
    <g id="Group_53" data-name="Group 53" transform="translate(656.412 2720.769)">
      <rect id="Rectangle_1131" data-name="Rectangle 1131" width="23.762" height="23.762" rx="5" fill="#9f9e9e"/>
      <rect id="Rectangle_1132" data-name="Rectangle 1132" width="23.762" height="23.762" rx="5" transform="translate(0 28.765)" fill="#e96f6f"/>
      <text id="female" transform="translate(33.767 43.018)" fill="gray" font-size="8" font-family="Roboto-Regular, Roboto"><tspan x="0" y="0">female</tspan></text>
      <text id="Male" transform="translate(33.767 13.003)" fill="gray" font-size="8" font-family="Roboto-Regular, Roboto"><tspan x="0" y="0">Male</tspan></text>
    </g>
  </g>
</svg>
