<svg xmlns="http://www.w3.org/2000/svg" width="2120.696" height="626.302" viewBox="0 0 2120.696 626.302">
  <g id="Group_188" data-name="Group 188" transform="translate(483.696 -468.194)">
    <g id="Group_187" data-name="Group 187">
      <g id="Group_186" data-name="Group 186">
        <g id="Group_185" data-name="Group 185">
          <path id="Path_288" data-name="Path 288" d="M1162.518,343.764c8.092,0,10.059-3.085,14.514-38.739,2.561-20.453,5.2-47.493,8.018-76.144,3.935-40.3,9.057-92.457,13.548-115.8,5.048,11.116,11.73,28.54,17.446,43.575,23.125,60.61,35.56,89.622,49.48,93.68a38.72,38.72,0,0,0,21.789.584c7.721-1.612,46.4-2.974,58.575-2.974,4.1,0,7.424-2.488,7.424-5.558s-3.324-5.558-7.424-5.558c-9.206,0-51.633,1.084-62.583,3.39a19.88,19.88,0,0,1-12.4-.25c-9.354-4.585-28.916-55.774-40.571-86.371-20.935-54.83-24.387-61.138-33.742-61.138-8.055,0-11.136,2.251-16.852,46.493-3.192,24.761-6.422,57.47-9.5,89.094-3.452,35.182-7.424,77.145-10.913,96.626-4.195-7.059-9.243-17.063-13.326-25.178-11.99-23.649-24.35-48.132-36.265-56.469-27.543-19.453-56.05-9.365-71.343-4.03a60.289,60.289,0,0,1-9.614,2.779c-9.279,0-16.926-7.475-24.313-14.729-8.018-7.865-16.333-16.007-28.693-16.007-16.518,0-27.245,10.477-35.82,18.869a77.044,77.044,0,0,1-7.795,7c-12.769,8.948-16.815,7.17-24.165,3.974-6.162-2.779-14.588-6.364-27.023-3.335a18.21,18.21,0,0,0-5.2,2.473c-6.2,3.724-15.553,9.337-30.549-1.195-3.9-2.946-17.966-25.15-28.247-41.351-30.586-48.271-34.744-52.467-42.39-52.467s-8.76,3.474-14.848,25.011c-3.489,12.644-7.758,29.707-12.287,47.771C740.917,243.8,731.86,279.9,725.7,298.383c-.742-1.945-1.448-3.918-2.116-5.78-12.249-33.932-24.2-62.083-46.993-62.777a60.5,60.5,0,0,0-19.71,3.752,48.978,48.978,0,0,1-13.066,2.779c-4.1,0-7.424,2.488-7.424,5.558s3.324,5.558,7.424,5.558a62.4,62.4,0,0,0,18.782-3.779,45.675,45.675,0,0,1,13.4-2.779c13.734.417,27.394,38.35,33.407,54.552,6.756,18.786,8.575,23.816,16.518,23.816s10.394-3.446,19.451-35.126c5.234-18.23,11.136-41.685,16.815-64.417,5.382-21.454,11.136-45.047,15.145-57.608,7.424,9.782,18.263,27.206,26.318,39.906,17.892,28.262,26.318,41.046,31.477,44.686,24.424,17.146,43.69,5.558,50,1.723.483-.25.854-.5,1.188-.695,5.419-1.167,8.686,0,14.254,2.529,11.136,4.808,22.569,8.031,41.833-5.558a78.921,78.921,0,0,0,9.391-8.337c6.979-6.809,14.848-14.534,24.053-14.534,5.011,0,11.136,5.919,16.889,11.644,8.686,8.5,19.488,19.092,36.154,19.092a50.823,50.823,0,0,0,15.85-3.918c15.479-5.558,34.706-12.144,54.936,2.056,9.391,6.586,22.272,31.931,32.479,52.273C1147.93,334.76,1152.9,343.764,1162.518,343.764Z" transform="translate(283.689 563.261)" fill="rgba(237,46,45,0.7)"/>
          <path id="Path_289" data-name="Path 289" d="M1351.637,343.764c8.092,0,10.06-3.085,14.514-38.767,2.561-20.426,5.2-47.493,8.018-76.117,3.935-40.3,9.057-92.457,13.548-115.773,5.048,11.116,11.73,28.512,17.447,43.547,23.125,60.61,35.56,89.622,49.48,93.68a38.721,38.721,0,0,0,21.789.584c7.721-1.612,46.4-2.974,58.574-2.974,4.1,0,7.424-2.488,7.424-5.558s-3.324-5.558-7.424-5.558c-9.205,0-51.633,1.084-62.583,3.39a19.882,19.882,0,0,1-12.4-.25c-9.354-4.585-28.915-55.774-40.571-86.371-20.935-54.829-24.387-61.138-33.741-61.138-8.055,0-11.136,2.251-16.852,46.493-3.192,24.761-6.422,57.47-9.5,89.067-3.452,35.21-7.424,77.145-10.913,96.653-4.157-7.059-9.243-17.035-13.326-25.178-11.989-23.649-24.35-48.132-36.266-56.469-27.543-19.453-56.05-9.365-71.343-4.03a60.276,60.276,0,0,1-9.614,2.779c-9.28,0-16.927-7.476-24.313-14.729-8.018-7.865-16.333-16.007-28.693-16.007-16.518,0-27.208,10.477-35.82,18.869a69.656,69.656,0,0,1-7.795,6.975c-12.769,8.976-16.815,7.2-24.165,4-6.162-2.779-14.588-6.364-27.023-3.335a18.2,18.2,0,0,0-5.2,2.473c-6.2,3.724-15.553,9.337-30.549-1.195-3.9-2.946-17.966-25.15-28.247-41.351-30.586-48.271-34.744-52.467-42.39-52.467s-8.76,3.474-14.848,25.011c-3.489,12.644-7.758,29.707-12.287,47.771-6.533,26.011-15.59,62.111-21.752,80.591-.743-1.945-1.448-3.918-2.116-5.78-12.249-33.932-24.239-62.083-46.993-62.777A61.025,61.025,0,0,0,846,233.577a48.646,48.646,0,0,1-13.066,2.779c-4.1,0-7.424,2.488-7.424,5.558s3.324,5.558,7.424,5.558a62.4,62.4,0,0,0,18.782-3.779,45.439,45.439,0,0,1,13.4-2.779c13.734.417,27.394,38.35,33.407,54.552,6.756,18.786,8.575,23.816,16.518,23.816s10.393-3.446,19.451-35.126c5.234-18.23,11.136-41.685,16.815-64.445,5.382-21.454,11.136-45.02,15.145-57.581,7.424,9.782,18.263,27.206,26.318,39.906,17.891,28.262,26.28,41.046,31.477,44.686,24.425,17.146,43.689,5.558,50,1.723.482-.25.853-.5,1.188-.695,5.419-1.167,8.686,0,14.254,2.529,11.136,4.808,22.569,8,41.833-5.558a79.431,79.431,0,0,0,9.391-8.337c6.979-6.781,14.848-14.506,24.053-14.506,5.011,0,11.136,5.919,16.889,11.644,8.686,8.5,19.488,19.092,36.154,19.092a50.824,50.824,0,0,0,15.85-3.918c15.478-5.558,34.706-12.144,54.936,2.056,9.391,6.586,22.272,31.931,32.516,52.3C1337.05,334.76,1342.061,343.764,1351.637,343.764Z" transform="translate(-607.429 563.261)" fill="rgba(237,46,45,0.7)"/>
          <path id="Path_290" data-name="Path 290" d="M1540.617,651.281c8.575,0,8.946-4.974,10.839-28.846,1.114-14.256,2.338-34.821,3.712-62.916,2.561-52.245,5.2-121.5,8.018-194.807,4.195-109.576,9.168-239.8,13.771-299.381,4.863,25.011,10.8,60.943,16.3,94.236,7.424,45.575,16.073,97.265,24.053,136.81,14.254,70.475,20.676,72.254,26.318,74a38.722,38.722,0,0,0,21.789.584c7.721-1.612,46.4-2.974,58.574-2.974,4.1,0,7.424-2.488,7.424-5.558s-3.323-5.558-7.424-5.558c-9.206,0-51.67,1.084-62.583,3.39a19.515,19.515,0,0,1-11.136,0c-10.876-12.561-29.7-126.444-42.2-202.144-5.642-34.209-11.136-66.529-15.479-90.039-2.376-12.617-4.38-21.871-6.088-28.262-2.19-8.337-3.935-14.84-11.73-14.84s-8.686,6.114-9.688,12.617c-.78,4.947-1.6,12.339-2.413,21.982-1.485,17.591-3.043,42.741-4.789,76.95-3.192,63.25-6.384,146.9-9.466,227.877-3.452,90.012-7.424,188.582-10.542,241.272-3.415-19.453-7.2-44.019-10.764-67.029-18.151-117.134-27.616-167.406-39.161-175.521-27.58-19.453-56.087-9.365-71.38-4.03a60.285,60.285,0,0,1-9.614,2.779c-9.317,0-16.927-7.475-24.313-14.729-8.018-7.865-16.332-16.007-28.693-16.007-16.518,0-27.245,10.477-35.82,18.869a77.032,77.032,0,0,1-7.795,7c-12.769,8.948-16.815,7.2-24.165,3.974-6.162-2.779-14.588-6.364-27.023-3.335a18.659,18.659,0,0,0-5.2,2.473c-6.2,3.724-15.516,9.337-30.549-1.195-3.935-2.946-18-25.15-28.248-41.379-30.586-48.243-34.743-52.44-42.353-52.44s-8.8,3.474-14.848,25.011c-3.489,12.672-7.8,29.735-12.323,47.8-6.5,26.011-15.553,62.083-21.715,80.591-.7-1.945-1.448-3.918-2.116-5.808-12.249-33.9-24.239-62.055-46.993-62.75a60.642,60.642,0,0,0-19.711,3.752,48.653,48.653,0,0,1-13.065,2.779c-4.1,0-7.424,2.488-7.424,5.558s3.323,5.558,7.424,5.558a62.4,62.4,0,0,0,18.783-3.779,45.67,45.67,0,0,1,13.4-2.779c13.734.417,27.431,38.35,33.407,54.552,6.755,18.786,8.612,23.816,16.518,23.816s10.393-3.446,19.45-35.1c5.234-18.23,11.136-41.685,16.815-64.417,5.382-21.482,11.136-45.047,15.145-57.636,7.424,9.782,18.263,27.179,26.28,39.879,17.929,28.29,26.318,41.074,31.514,44.714,24.461,17.146,43.689,5.558,50.036,1.723l1.151-.695c5.419-1.167,8.686,0,14.254,2.529,11.136,4.808,22.568,8.031,41.833-5.558a76.975,76.975,0,0,0,9.392-8.337c6.978-6.781,14.847-14.506,24.052-14.506,5.011,0,11.136,5.919,16.889,11.644,8.686,8.5,19.488,19.092,36.154,19.092a50.824,50.824,0,0,0,15.85-3.918c15.479-5.558,34.706-12.144,54.936,2.056,9.8,8.893,24.722,105.046,34.558,168.713,4.417,28.4,8.575,55.246,12.138,74.755C1530.447,648.141,1532.711,651.281,1540.617,651.281Z" transform="translate(-1498.296 443.214)" fill="rgba(237,46,45,0.7)"/>
        </g>
      </g>
    </g>
  </g>
</svg>
