<svg xmlns="http://www.w3.org/2000/svg" width="23" height="14.98" viewBox="0 0 23 14.98">
  <g id="Icon_ionic-ios-menu" data-name="Icon ionic-ios-menu" transform="translate(-4.5 -10.125)">
    <path id="Path_489" data-name="Path 489" d="M26.542,12.265H5.458A1.022,1.022,0,0,1,4.5,11.2h0a1.022,1.022,0,0,1,.958-1.07H26.542A1.022,1.022,0,0,1,27.5,11.2h0A1.022,1.022,0,0,1,26.542,12.265Z"/>
    <path id="Path_490" data-name="Path 490" d="M26.542,19.015H5.458a1.022,1.022,0,0,1-.958-1.07h0a1.022,1.022,0,0,1,.958-1.07H26.542a1.022,1.022,0,0,1,.958,1.07h0A1.022,1.022,0,0,1,26.542,19.015Z" transform="translate(0 -0.33)"/>
    <path id="Path_491" data-name="Path 491" d="M26.542,25.765H5.458A1.022,1.022,0,0,1,4.5,24.7h0a1.022,1.022,0,0,1,.958-1.07H26.542A1.022,1.022,0,0,1,27.5,24.7h0A1.022,1.022,0,0,1,26.542,25.765Z" transform="translate(0 -0.66)"/>
  </g>
</svg>
