<svg xmlns="http://www.w3.org/2000/svg" width="867.103" height="303.948" viewBox="0 0 867.103 303.948">
  <path id="Path_289" data-name="Path 289" d="M1461.852,396.408c9.787,0,12.167-3.731,17.554-46.888,3.1-24.7,6.285-57.442,9.7-92.062,4.759-48.737,10.954-111.825,16.387-140.025,6.106,13.445,14.187,34.485,21.1,52.669,27.969,73.307,43.01,108.4,59.845,113.3a46.832,46.832,0,0,0,26.353.706c9.339-1.949,56.119-3.6,70.845-3.6,4.959,0,8.979-3.01,8.979-6.722s-4.02-6.722-8.979-6.722c-11.134,0-62.449,1.311-75.693,4.1a24.047,24.047,0,0,1-15-.3c-11.313-5.546-34.973-67.458-49.07-104.464-25.321-66.315-29.5-73.945-40.81-73.945-9.742,0-13.469,2.723-20.382,56.232-3.861,29.948-7.767,69.508-11.493,107.725-4.175,42.586-8.979,93.305-13.2,116.9-5.028-8.537-11.179-20.6-16.117-30.452-14.5-28.6-29.451-58.215-43.863-68.3-33.312-23.528-67.792-11.327-86.288-4.874a72.9,72.9,0,0,1-11.628,3.361c-11.224,0-20.472-9.042-29.406-17.814-9.7-9.512-19.754-19.36-34.7-19.36-19.978,0-32.908,12.672-43.324,22.822a84.237,84.237,0,0,1-9.428,8.437c-15.444,10.856-20.337,8.705-29.227,4.84-7.452-3.361-17.644-7.7-32.684-4.033a22.018,22.018,0,0,0-6.285,2.991c-7.5,4.5-18.812,11.293-36.949-1.445-4.714-3.563-21.729-30.418-34.165-50.014-36.994-58.383-42.022-63.458-51.27-63.458s-10.595,4.2-17.958,30.25c-4.22,15.293-9.383,35.931-14.86,57.778-7.9,31.46-18.856,75.122-26.308,97.473-.9-2.353-1.751-4.739-2.559-6.991-14.815-41.04-29.317-75.088-56.837-75.928a73.808,73.808,0,0,0-23.839,4.538,58.836,58.836,0,0,1-15.8,3.361c-4.959,0-8.979,3.01-8.979,6.722s4.02,6.722,8.979,6.722a75.468,75.468,0,0,0,22.716-4.571,54.957,54.957,0,0,1,16.207-3.361c16.611.5,33.133,46.384,40.406,65.979,8.171,22.721,10.371,28.8,19.978,28.8s12.571-4.168,23.525-42.485c6.33-22.049,13.468-50.417,20.338-77.945,6.51-25.948,13.468-54.451,18.318-69.643,8.979,11.831,22.088,32.906,31.831,48.266,21.639,34.183,31.786,49.644,38.071,54.047,29.541,20.738,52.841,6.722,60.474,2.084.583-.3,1.032-.6,1.437-.84,6.555-1.412,10.505,0,17.24,3.059,13.468,5.815,27.3,9.68,50.6-6.722a96.072,96.072,0,0,0,11.358-10.084c8.441-8.2,17.958-17.545,29.092-17.545,6.061,0,13.469,7.159,20.427,14.083,10.506,10.285,23.57,23.091,43.728,23.091a61.469,61.469,0,0,0,19.17-4.739c18.721-6.722,41.977-14.688,66.444,2.487,11.359,7.966,26.937,38.62,39.328,63.257C1444.209,385.518,1450.269,396.408,1461.852,396.408Z" transform="translate(-825.51 -92.46)" fill="#f1cfce"/>
</svg>
