<svg xmlns="http://www.w3.org/2000/svg" width="1148.993" height="334.652" viewBox="0 0 1148.993 334.652">
  <path id="Path_288" data-name="Path 288" d="M1479.6,427.112c12.969,0,16.122-4.108,23.261-51.587,4.1-27.237,8.329-63.244,12.85-101.4,6.306-53.66,14.516-123.121,21.714-154.207,8.09,14.8,18.8,38.006,27.96,58.027,37.062,80.712,56.991,119.347,79.3,124.75a74.194,74.194,0,0,0,34.92.777c12.375-2.146,74.363-3.96,93.876-3.96,6.571,0,11.9-3.314,11.9-7.4s-5.327-7.4-11.9-7.4c-14.754,0-82.751,1.443-100.3,4.515a38.042,38.042,0,0,1-19.87-.333c-14.991-6.106-46.343-74.273-65.022-115.017-33.552-73.014-39.085-81.415-54.077-81.415-12.909,0-17.847,3-27.008,61.912-5.116,32.973-10.292,76.53-15.229,118.643-5.533,46.85-11.9,102.731-17.49,128.672-6.723-9.4-14.813-22.722-21.357-33.528-19.215-31.493-39.026-64.1-58.122-75.2-44.142-25.9-89.83-12.471-114.34-5.366a112.08,112.08,0,0,1-15.409,3.7c-14.872,0-27.127-9.955-38.965-19.614-12.85-10.473-26.176-21.316-45.986-21.316-26.473,0-43.666,13.952-57.408,25.128a118.827,118.827,0,0,1-12.493,9.326c-20.465,11.916-26.949,9.548-38.728,5.292-9.875-3.7-23.38-8.474-43.309-4.441a32.093,32.093,0,0,0-8.329,3.294c-9.935,4.959-24.927,12.434-48.96-1.591-6.246-3.923-28.793-33.491-45.272-55.066-49.02-64.281-55.683-69.869-67.938-69.869s-14.039,4.626-23.8,33.306c-5.592,16.838-12.434,39.56-19.691,63.615C803.914,294,789.4,342.07,779.523,366.68c-1.189-2.59-2.32-5.218-3.391-7.7-19.631-45.185-38.788-82.673-75.314-83.6a114.558,114.558,0,0,0-31.59,5,92.446,92.446,0,0,1-20.941,3.7c-6.571,0-11.9,3.314-11.9,7.4s5.327,7.4,11.9,7.4a117.96,117.96,0,0,0,30.1-5.033,86.266,86.266,0,0,1,21.477-3.7c22.011.555,43.9,51.069,53.541,72.644,10.827,25.017,13.742,31.715,26.473,31.715s16.657-4.589,31.173-46.776c8.388-24.276,17.847-55.51,26.949-85.782,8.626-28.569,17.847-59.988,24.272-76.715,11.9,13.026,29.269,36.23,42.178,53.142,28.674,37.636,42.179,54.659,50.447,59.507,39.145,22.833,70.02,7.4,80.133,2.294.774-.333,1.368-.666,1.9-.925,8.686-1.554,13.921,0,22.844,3.368,17.847,6.4,36.171,10.695,67.046-7.4a122.12,122.12,0,0,0,15.051-11.1c11.184-9.067,23.8-19.354,38.55-19.354,8.031,0,17.847,7.882,27.068,15.506,13.921,11.324,31.232,25.424,57.943,25.424a95.221,95.221,0,0,0,25.4-5.218c24.807-7.4,55.623-16.172,88.045,2.739,15.051,8.771,35.694,42.521,52.054,69.61C1456.224,415.121,1464.2,427.112,1479.6,427.112Z" transform="translate(-636.39 -92.46)" fill="#f1cfce"/>
</svg>
