<svg id="breathable" xmlns="http://www.w3.org/2000/svg" width="69.386" height="69.385" viewBox="0 0 69.386 69.385">
  <path id="Path_437" data-name="Path 437" d="M438.424,273.063l1.818,3.637-8.131,4.066-1.818-3.637Zm0,0" transform="translate(-371.98 -236.126)" fill="#ed2e2d"/>
  <path id="Path_438" data-name="Path 438" d="M452,361.5h8.131v4.066H452Zm0,0" transform="translate(-390.745 -312.574)" fill="#ed2e2d"/>
  <path id="Path_439" data-name="Path 439" d="M438.431,430.8l-8.131-4.065,1.818-3.637,8.131,4.066Zm0,0" transform="translate(-371.987 -365.828)" fill="#ed2e2d"/>
  <path id="Path_440" data-name="Path 440" d="M19.581,40.546A6.1,6.1,0,0,1,16.4,35.192V27.061a6.1,6.1,0,0,1,6.1-6.1,6.042,6.042,0,0,1,3.583,1.188l11.982-9.319h8.964A10.28,10.28,0,0,0,57.19,2.533V.5H27.615C12.731.5.271,12.266.006,26.562A26.229,26.229,0,0,0,6.922,44.868c.143.156.378.33.516.488h9.738Zm0,0" transform="translate(-0.001 -0.5)" fill="#ed2e2d"/>
  <path id="Path_441" data-name="Path 441" d="M116.088,121.5H104.481L93.4,130.12a6.02,6.02,0,0,1,.222,1.544V133.7H89.555v-2.033a2.033,2.033,0,1,0-4.066,0V139.8a2.033,2.033,0,1,0,4.066,0H93.62a6.1,6.1,0,0,1-4.763,5.942l-4.144,8.288H75.219a17.4,17.4,0,0,1,2.139,7.956v12.507h28.459v-8.267h6.234a6.1,6.1,0,0,0,6.1-6.1V154.8l-5.618-2.809,5.618-2.809v-4.066l9.531-4.764-9.545-9.545A26.382,26.382,0,0,0,116.088,121.5Zm0,0" transform="translate(-65.025 -105.102)" fill="#ed2e2d"/>
</svg>
