<svg xmlns="http://www.w3.org/2000/svg" width="75.004" height="44.709" viewBox="0 0 75.004 44.709">
  <g id="eye" transform="translate(0)">
    <path id="Path_436" data-name="Path 436" d="M37.5,98.725c-14.33,0-27.326,7.84-36.915,20.575a2.969,2.969,0,0,0,0,3.544c9.589,12.75,22.585,20.59,36.915,20.59s27.326-7.84,36.915-20.575a2.969,2.969,0,0,0,0-3.544C64.828,106.565,51.832,98.725,37.5,98.725Zm1.028,38.1a15.775,15.775,0,1,1,14.714-14.714A15.785,15.785,0,0,1,38.53,136.822Zm-.476-7.273a8.494,8.494,0,1,1,7.932-7.932A8.481,8.481,0,0,1,38.054,129.549Z" transform="translate(0 -98.725)" fill="#ed2e2d"/>
  </g>
</svg>
