<svg xmlns="http://www.w3.org/2000/svg" width="82.48" height="44.579" viewBox="0 0 82.48 44.579">
  <g id="fatigue" transform="translate(0)">
    <g id="Group_23" data-name="Group 23" transform="translate(25.315 3.598)">
      <g id="Group_22" data-name="Group 22" transform="translate(0 0)">
        <path id="Path_442" data-name="Path 442" d="M173.071,157.144a13.948,13.948,0,0,0-7.077,1.951,14.224,14.224,0,0,1,9.3,1.781c6.98,3.834,10,13.618,6.735,21.811-1.981,4.968-6.2,7.89-10.586,7.89a10.185,10.185,0,0,1-4.928-1.29c-4.906-2.694-7.029-9.571-4.733-15.328A8.953,8.953,0,0,1,166.5,168.9a7.173,7.173,0,0,1,6.381.337,3.09,3.09,0,0,1,1.175,3.8,2.3,2.3,0,0,1-3.241,1.379,2.983,2.983,0,0,0-2.653-.14,3.722,3.722,0,0,0-1.961,2.1c-1.156,2.9-.087,6.363,2.384,7.72,3.393,1.864,7.445.14,9.032-3.843,2.127-5.335.159-11.706-4.386-14.2-5.906-3.243-12.945-.317-15.839,6.518a21.891,21.891,0,0,0-.243,3.26c0,10.307,7.144,18.692,15.925,18.692S189,186.142,189,175.836,181.852,157.144,173.071,157.144Z" transform="translate(-157.146 -157.144)" fill="#ed2e2d"/>
      </g>
    </g>
    <g id="Group_25" data-name="Group 25" transform="translate(0 0)">
      <g id="Group_24" data-name="Group 24" transform="translate(0 0)">
        <path id="Path_443" data-name="Path 443" d="M20.44,160.4c0-9.917,5.065-18.472,12.317-22.289a56.957,56.957,0,0,0-20.238,9.65A73.588,73.588,0,0,0,.714,158.382a3.223,3.223,0,0,0,0,4.044A73.61,73.61,0,0,0,12.52,173.043a56.96,56.96,0,0,0,20.238,9.65C25.5,178.876,20.44,170.322,20.44,160.4Z" transform="translate(-0.001 -138.115)" fill="#ed2e2d"/>
      </g>
    </g>
    <g id="Group_27" data-name="Group 27" transform="translate(49.722 0)">
      <g id="Group_26" data-name="Group 26" transform="translate(0 0)">
        <path id="Path_444" data-name="Path 444" d="M340.7,158.382A73.612,73.612,0,0,0,328.9,147.765a56.961,56.961,0,0,0-20.238-9.65c7.253,3.818,12.317,12.372,12.317,22.289s-5.065,18.472-12.317,22.29a56.959,56.959,0,0,0,20.238-9.65A73.575,73.575,0,0,0,340.7,162.426,3.223,3.223,0,0,0,340.7,158.382Z" transform="translate(-308.658 -138.115)" fill="#ed2e2d"/>
      </g>
    </g>
  </g>
</svg>
