<svg xmlns="http://www.w3.org/2000/svg" width="81.788" height="71.564" viewBox="0 0 81.788 71.564">
  <path id="Icon_awesome-heartbeat" data-name="Icon awesome-heartbeat" d="M51.148,36.086,43.209,51.963a2.554,2.554,0,0,1-4.616-.1L29.5,31.693,24.712,43.146H9.681l29.151,29.79a2.846,2.846,0,0,0,4.105,0L72.1,43.146H54.678ZM75.667,8.947l-.383-.4a20.925,20.925,0,0,0-29.934,0l-4.457,4.568L36.436,8.564a20.9,20.9,0,0,0-29.934,0l-.383.383A21.932,21.932,0,0,0,4.953,38.035H21.31l5.734-13.769a2.561,2.561,0,0,1,4.7-.064l9.3,20.653,7.827-15.638a2.552,2.552,0,0,1,4.568,0l4.409,8.817H76.833A21.932,21.932,0,0,0,75.667,8.947Z" transform="translate(0.001 -2.247)" fill="#ed2e2d"/>
</svg>
