<svg xmlns="http://www.w3.org/2000/svg" width="77.5" height="79.282" viewBox="0 0 77.5 79.282">
  <g id="Layer_31" data-name="Layer 31" transform="translate(0)">
    <path id="Path_445" data-name="Path 445" d="M14.613,52.351l.629-.21a19.976,19.976,0,0,0,9.551-6.884,18.639,18.639,0,0,1-1.651-6.947l-2.729,1.364v5.888H17.725V33.469a1.344,1.344,0,0,1,.3-.85L29.4,18.716a1.834,1.834,0,0,0,.418-1.165,1.551,1.551,0,0,0-2.607-1.135L11.2,31.28a4.837,4.837,0,0,0-1.54,3.533,1.232,1.232,0,0,1-.016.2l-6.484,42.8h11.8L13.694,53.7A1.344,1.344,0,0,1,14.613,52.351Z" transform="translate(-3.163 1.469)" fill="#ed2e2d"/>
    <path id="Path_446" data-name="Path 446" d="M22.6,50.292,20.323,51c2.905,5.018,9,8.3,15.691,8.3S48.8,56.02,51.7,51l-2.276-.711a17.385,17.385,0,0,1-26.829,0Z" transform="translate(2.735 13.257)" fill="#ed2e2d"/>
    <path id="Path_447" data-name="Path 447" d="M52.25,36.912V26.791L48.329,22l-4.9-4.287a14.386,14.386,0,0,1-13.057,8.452H20.515L20,26.791V36.912a16.125,16.125,0,1,0,32.25,0ZM33.405,33.179A1.344,1.344,0,0,1,32.357,34.2l-6.719,1.344-.532-2.634,3.771-.755-2.964-2.228,1.613-2.15L32.9,31.806A1.344,1.344,0,0,1,33.405,33.179Zm13.2,2.362L39.888,34.2a1.344,1.344,0,0,1-.538-2.392l5.375-4.031,1.613,2.15-2.97,2.228,3.771.755Z" transform="translate(2.624 2.057)" fill="#ed2e2d"/>
    <path id="Path_448" data-name="Path 448" d="M41.434,49.01V45.061a18.52,18.52,0,0,1-13.437,0V49.01a1.344,1.344,0,0,1-.941,1.282l-2.956.924a14.76,14.76,0,0,0,21.245,0l-2.956-.925A1.344,1.344,0,0,1,41.434,49.01Z" transform="translate(4.034 11.459)" fill="#ed2e2d"/>
    <path id="Path_449" data-name="Path 449" d="M23.856,17.781a4.244,4.244,0,0,1,4.238,4.238,4.531,4.531,0,0,1-1.025,2.868l-2.98,3.644h7.659A11.673,11.673,0,0,0,42.925,20.1a1.344,1.344,0,0,1,2.177-.644L47,21.122a4.237,4.237,0,0,1,7.024-2.209L59,23.53V17.781a6.727,6.727,0,0,0-6.719-6.719H50.938a1.344,1.344,0,0,1-1.344-1.344A6.727,6.727,0,0,0,42.875,3H28.094A12.107,12.107,0,0,0,16,15.094V23.53l4.972-4.616a4.231,4.231,0,0,1,2.884-1.133Z" transform="translate(1.249 -3)" fill="#ed2e2d"/>
    <path id="Path_450" data-name="Path 450" d="M67.656,77.813l-6.484-42.8a1.233,1.233,0,0,1-.016-.2,4.837,4.837,0,0,0-1.54-3.533L43.606,16.414A1.551,1.551,0,0,0,41,17.551a1.84,1.84,0,0,0,.417,1.165l11.374,13.9a1.344,1.344,0,0,1,.3.851V45.563H50.406V39.674l-2.729-1.368a18.665,18.665,0,0,1-1.651,6.947,19.971,19.971,0,0,0,9.551,6.893l.629.21a1.344,1.344,0,0,1,.918,1.344l-1.27,24.112Z" transform="translate(9.843 1.469)" fill="#ed2e2d"/>
    <path id="Path_451" data-name="Path 451" d="M38.369,61.6c-7.864,0-15.05-4.043-18.314-10.171l-6.584,2.057.642,12.145H62.623l.64-12.145-6.584-2.057C53.419,57.559,46.233,61.6,38.369,61.6Z" transform="translate(0.38 13.648)" fill="#ed2e2d"/>
  </g>
</svg>
