<svg xmlns="http://www.w3.org/2000/svg" width="80.625" height="75.237" viewBox="0 0 80.625 75.237">
  <g id="numb" transform="translate(0)">
    <path id="Path_423" data-name="Path 423" d="M51,44.534a14.758,14.758,0,0,1-22.871,0L26.945,43.11,10,46.738V60.646l5.375.927V55.056a1.344,1.344,0,0,1,1.344-1.344h10.75a1.344,1.344,0,0,1,1.344,1.344v8.855l10.75,1.881,29.563-5.147V46.738L52.18,43.11Z" transform="translate(0.75 9.444)" fill="#ed2e2d"/>
    <path id="Path_424" data-name="Path 424" d="M44,21v5.375h1.344a1.344,1.344,0,0,0,1.344-1.344V22.344A1.344,1.344,0,0,0,45.344,21Z" transform="translate(12.437 1.844)" fill="#ed2e2d"/>
    <path id="Path_425" data-name="Path 425" d="M19.344,26.375h1.344V21H19.344A1.344,1.344,0,0,0,18,22.344v2.688A1.344,1.344,0,0,0,19.344,26.375Z" transform="translate(3.5 1.844)" fill="#ed2e2d"/>
    <path id="Path_426" data-name="Path 426" d="M34.661,38.278a16.249,16.249,0,0,1-5.792-1.088L24.26,43.6l1.035,1.277a12.109,12.109,0,0,0,18.732,0L45.061,43.6l-4.609-6.41A16.249,16.249,0,0,1,34.661,38.278Z" transform="translate(5.652 7.409)" fill="#ed2e2d"/>
    <path id="Path_427" data-name="Path 427" d="M16,58.644l8.063,1.411V53H16Z" transform="translate(2.812 12.844)" fill="#ed2e2d"/>
    <path id="Path_428" data-name="Path 428" d="M48.875,17.042,30.251,12.07,22,16.787v14a13.438,13.438,0,0,0,26.875,0ZM28.719,25.294a8.6,8.6,0,0,1-4.776-1.449l1.49-2.237a5.913,5.913,0,0,0,6.571,0L33.5,23.844A8.6,8.6,0,0,1,28.719,25.294Zm13.438,0a8.6,8.6,0,0,1-4.776-1.449l1.49-2.237a5.913,5.913,0,0,0,6.571,0l1.492,2.236a8.6,8.6,0,0,1-4.777,1.45Z" transform="translate(4.875 -1.226)" fill="#ed2e2d"/>
    <path id="Path_429" data-name="Path 429" d="M20.687,19.883v-1.1a1.344,1.344,0,0,1,.672-1.169l9.406-5.375a1.353,1.353,0,0,1,1.021-.134l20.156,5.375a1.219,1.219,0,0,1,.484.269,9.355,9.355,0,0,0,3.2-7.028V4H27.406A9.417,9.417,0,0,0,18,13.406v2.688a4.045,4.045,0,0,0,2.688,3.789Z" transform="translate(3.5 -4)" fill="#ed2e2d"/>
    <path id="Path_430" data-name="Path 430" d="M10.688,28.063h2.688V25.375h2.688V22.687H13.375V20H10.688v2.688H8v2.688h2.688Z" transform="translate(0.062 1.5)" fill="#ed2e2d"/>
    <path id="Path_431" data-name="Path 431" d="M4.688,20.063H7.375V17.375h2.688V14.687H7.375V12H4.688v2.688H2v2.688H4.688Z" transform="translate(-2 -1.25)" fill="#ed2e2d"/>
    <path id="Path_432" data-name="Path 432" d="M7.375,28H4.688v2.688H2v2.687H4.688v2.688H7.375V33.375h2.688V30.688H7.375Z" transform="translate(-2 4.25)" fill="#ed2e2d"/>
    <path id="Path_433" data-name="Path 433" d="M58.062,22.687H55.375V20H52.687v2.688H50v2.688h2.687v2.688h2.688V25.375h2.687Z" transform="translate(14.5 1.5)" fill="#ed2e2d"/>
    <path id="Path_434" data-name="Path 434" d="M61.375,14.687V12H58.688v2.688H56v2.688h2.688v2.688h2.687V17.375h2.688V14.687Z" transform="translate(16.563 -1.25)" fill="#ed2e2d"/>
    <path id="Path_435" data-name="Path 435" d="M61.375,28H58.688v2.688H56v2.687h2.688v2.688h2.687V33.375h2.688V30.688H61.375Z" transform="translate(16.563 4.25)" fill="#ed2e2d"/>
  </g>
</svg>
