<svg xmlns="http://www.w3.org/2000/svg" width="71.466" height="72.562" viewBox="0 0 71.466 72.562">
  <g id="shoulder" transform="translate(0)">
    <g id="Group_21" data-name="Group 21" transform="translate(0)">
      <g id="Group_20" data-name="Group 20">
        <path id="Path_418" data-name="Path 418" d="M85.752,171.09a9.528,9.528,0,0,0-3.521-5.208,6.82,6.82,0,0,0-2.831-1.208,7.265,7.265,0,0,0-1.094-.09q-.575,0-1.105.048c-.044,0-.08.012-.123.016q-.446.045-.857.124c-.087.017-.165.036-.247.055-.239.053-.47.113-.69.184-.052.017-.107.033-.157.05a6.063,6.063,0,0,0-.782.331l-.008,0a4.385,4.385,0,0,0-.947.642l.928,1.854a1.3,1.3,0,0,1-1.739,1.739,4.578,4.578,0,0,0-1.736-.439.922.922,0,0,0-.655.2c-.916.916-.916,3.385-.916,5.562a4.189,4.189,0,0,0,.771,1.832c1.165,2.037,3.117,5.446,3.117,13.717V206.56a3.373,3.373,0,0,0,6.741.192c.386-6.8,1.034-19.307,1.034-26.621,0-1.906,1.554-2.617,2.688-3.134,1.02-.466,2.007-.918,2.365-2.213l0-.013c.025-.093.042-.2.06-.3a4.989,4.989,0,0,0,.066-.82,9.337,9.337,0,0,0-.064-1.028A13.479,13.479,0,0,0,85.752,171.09Zm-3.588,2.972a1.3,1.3,0,0,1-2.389.17,8.476,8.476,0,0,0-3.308-3.308,1.3,1.3,0,1,1,1.159-2.318,10.986,10.986,0,0,1,4.467,4.467A1.3,1.3,0,0,1,82.164,174.062Z" transform="translate(-60.003 -141.259)" fill="#ed2e2d"/>
        <path id="Path_419" data-name="Path 419" d="M212.14,137.143c-3.566,0-11.106,2.466-13.674,3.751a15.183,15.183,0,0,0-3.554,2.352,1.3,1.3,0,0,1-2.169-.606c-.044-.166-1.141-4.2-5.222-4.2-.479,0-.939.027-1.386.072-.146.014-.284.039-.427.058-.294.039-.585.081-.864.136-.157.031-.308.069-.459.105-.251.06-.5.124-.734.2q-.221.068-.434.142-.343.12-.664.255c-.128.054-.258.107-.381.164-.221.1-.431.212-.635.323-.1.053-.2.1-.294.159-.254.15-.493.306-.719.467-.031.022-.067.043-.1.065-.2.147-.38.3-.557.453a10.11,10.11,0,0,1,1.651,1.876,10.91,10.91,0,0,1,6-1.88,1.3,1.3,0,1,1,0,2.592,8.373,8.373,0,0,0-4.829,1.622c.027.078.068.149.093.228.171.542.3,1.044.421,1.527a12.188,12.188,0,0,1,.4,2.612c.006.119.018.245.02.36,0,.043.007.086.007.129,0,.126-.017.239-.022.361-.007.156-.013.312-.028.458s-.035.28-.058.417q-.038.236-.091.456c-.028.119-.057.238-.092.352a5.176,5.176,0,0,1-.181.487q-.091.218-.2.424c-.073.135-.146.268-.228.391-.03.045-.051.1-.082.141.039.028.08.056.119.081a.634.634,0,0,0,.773-.127l.471-.471a1.3,1.3,0,0,1,.916-.38,1.328,1.328,0,0,1,.3.034,1.294,1.294,0,0,1,.931.852c.108.32,2.623,7.881,3.915,13.054,1.263,5.049,3.3,9.121,6.381,15.283,2.233,4.467,4.167,4.467,6.615,4.467,4.678,0,5.183-7.249,5.183-10.366,0-2.236,1.372-6.021,3.107-10.813,2.552-7.044,5.695-15.74,5.94-23.248,0-.032-.012-.061-.011-.093l.019-.4c.008-.144.016-.287.016-.428C217.323,139.011,216.7,137.143,212.14,137.143Zm-.093,4.37a1.3,1.3,0,0,1-1.019.8h0c-8.265,1.181-10.744,4.584-10.767,4.619a1.3,1.3,0,1,1-2.156-1.437c.119-.178,3.023-4.385,12.556-5.747a1.3,1.3,0,0,1,1.386,1.766Z" transform="translate(-154.927 -117.707)" fill="#ed2e2d"/>
        <path id="Path_420" data-name="Path 420" d="M98.579,99.588l.037-.01c.3-.075.61-.141.944-.2l.084-.015a14.272,14.272,0,0,1,2.094-.167h.077l.018,0,.04,0a8.79,8.79,0,0,1,1.348.116c.2.029.4.074.595.116.164.037.327.076.489.122a10.052,10.052,0,0,1,1.984.729q.366-.355.8-.7c.088-.07.188-.135.279-.2.238-.179.483-.356.747-.526.133-.085.276-.164.416-.247.246-.145.5-.287.763-.421.163-.082.331-.159.5-.236.268-.122.543-.237.829-.345.185-.07.37-.138.562-.2.3-.1.611-.187.929-.271.2-.052.39-.105.593-.15.355-.078.725-.135,1.1-.189.184-.027.36-.062.549-.082a16.443,16.443,0,0,1,1.774-.1,7.817,7.817,0,0,1,7.029,4.373,20.9,20.9,0,0,1,2.757-1.645c.169-.084.358-.174.563-.267.073-.033.158-.068.235-.1.141-.062.279-.123.433-.188.093-.039.2-.08.293-.119.153-.062.3-.125.468-.189.105-.042.219-.084.328-.126.168-.064.334-.129.511-.194l.372-.135c.174-.063.348-.126.529-.19l.383-.132a52.089,52.089,0,0,0-13.9-2.382,17.075,17.075,0,0,0-4.816.729,1.3,1.3,0,0,1-.734-2.485,19.653,19.653,0,0,1,5.55-.835c4.863,0,11.034,1.223,18.341,3.627l.273-.069.462-.115c.2-.048.39-.094.584-.139l.46-.1c.189-.042.376-.081.563-.119q.23-.047.456-.09c.181-.034.359-.066.536-.1.15-.026.3-.051.446-.074.17-.027.336-.049.5-.072.144-.019.288-.039.428-.054.158-.018.309-.031.461-.044s.276-.024.409-.032c.043,0,.09-.008.132-.01-8.917-1.879-20.782-3.9-30.531-3.9-7.144,0-12.958,2.325-12.958,5.183a5.572,5.572,0,0,0,.954,3.264C97.932,99.768,98.246,99.674,98.579,99.588Z" transform="translate(-83.534 -78.469)" fill="#ed2e2d"/>
        <path id="Path_421" data-name="Path 421" d="M446.915,128.625q-.649-.156-1.355-.321c.051.035.09.076.139.113.146.108.287.219.416.336.066.06.129.122.191.184q.17.171.319.351c.053.064.107.128.156.194.1.138.2.28.283.424.03.05.065.1.094.15a5.523,5.523,0,0,1,.292.6c.017.043.03.087.047.13.063.165.12.332.168.5.021.073.038.145.056.218.036.143.067.286.094.43.014.077.028.154.039.232.022.149.039.3.053.446.006.066.014.131.019.2.015.212.023.423.023.63v-3.5A1.351,1.351,0,0,0,446.915,128.625Z" transform="translate(-382.962 -110.12)" fill="#ed2e2d"/>
        <path id="Path_422" data-name="Path 422" d="M74.039,0H47.044a6.538,6.538,0,0,0-3.863,1.278A30.027,30.027,0,0,1,28.189,7.56c-1.954.363-4.167.773-6.962,1.472C9.728,11.906,6.659,20.183,6.659,24.619c0,2.092.222,4.674.478,7.663.364,4.248.817,9.532.817,15.66A90.17,90.17,0,0,1,3.936,70.86a1.29,1.29,0,0,0,1.23,1.7h20.2A4.723,4.723,0,0,0,29.6,69.94c1.677-3.448,1.677-6.7,1.677-11.631a1.3,1.3,0,1,1,2.592,0V71.266a1.3,1.3,0,0,0,1.3,1.3H74.039a1.3,1.3,0,0,0,1.3-1.3V1.3A1.3,1.3,0,0,0,74.039,0ZM71.447,23.778a2.278,2.278,0,0,1-2.716,2.282c-.621,7.469-3.568,15.622-5.994,22.319-1.584,4.372-2.952,8.149-2.952,9.93,0,8.235-2.833,12.958-7.775,12.958-2.666,0-5.984,0-8.934-5.9-3.044-6.089-5.245-10.489-6.576-15.815-.9-3.618-2.467-8.574-3.3-11.151a3.168,3.168,0,0,1-2.912-.272,6.5,6.5,0,0,1-.707-.547c-.332.187-.674.355-1.016.511-.933.426-1.174.587-1.174.778,0,7.377-.651,19.937-1.039,26.768A5.964,5.964,0,0,1,14.434,65.3V49.239c0-7.581-1.67-10.5-2.775-12.43a6.14,6.14,0,0,1-1.112-3.119c0-2.812,0-5.72,1.675-7.395a3.38,3.38,0,0,1,2.417-.958l-.068-.138a1.3,1.3,0,0,1,0-1.159,4.676,4.676,0,0,1,1.147-1.357,8.227,8.227,0,0,1-1.284-4.542c0-4.577,6.394-7.775,15.549-7.775,12.392,0,27.745,3.056,38.442,5.618a3.935,3.935,0,0,1,3.022,3.843v3.95Z" transform="translate(-3.869)" fill="#ed2e2d"/>
      </g>
    </g>
  </g>
</svg>
