<svg xmlns="http://www.w3.org/2000/svg" width="71.695" height="71.532" viewBox="0 0 71.695 71.532">
  <g id="sleep" transform="translate(0)">
    <path id="Path_452" data-name="Path 452" d="M47.515,47.491s0,0,0,.007C18.13,43.933-2.558,75.526,12.15,100.938c14.589,25.331,52.364,23.31,63.964-3.907l.006,0A35.852,35.852,0,0,0,47.515,47.491Z" transform="translate(-7.294 -47.221)" fill="#ed2e2d"/>
    <path id="Path_453" data-name="Path 453" d="M18.934,112.729c-9.827-16.979-3.852-36.716,9.96-46.884C10.469,73.89.836,97.1,12.151,116.645c11.234,19.505,36.215,22.792,52.407,10.845C48.824,134.377,28.692,129.672,18.934,112.729Z" transform="translate(-7.294 -62.927)" fill="#ed2e2d"/>
    <path id="Path_454" data-name="Path 454" d="M215.846,354.151a3.783,3.783,0,0,1-3.783-3.783v-.917a3.783,3.783,0,1,1,7.566,0v.917A3.783,3.783,0,0,1,215.846,354.151Z" transform="translate(-179.985 -298.915)" fill="#fff"/>
    <path id="Path_455" data-name="Path 455" d="M215.847,350.37v-.917a3.78,3.78,0,0,1,1.892-3.276,3.782,3.782,0,0,0-5.674,3.275v.917a3.782,3.782,0,0,0,5.674,3.276A3.78,3.78,0,0,1,215.847,350.37Z" transform="translate(-179.986 -298.917)" fill="#fff"/>
    <path id="Path_464" data-name="Path 464" d="M209.352,338.17a4.964,4.964,0,0,0-4.958,4.958v.917a4.958,4.958,0,1,0,9.916,0v-.917A4.964,4.964,0,0,0,209.352,338.17Zm2.608,5.875a2.608,2.608,0,1,1-5.216,0v-.917a2.608,2.608,0,1,1,5.216,0Z" transform="translate(-173.518 -292.591)" fill="#fff"/>
    <path id="Path_465" data-name="Path 465" d="M293.471,270.213a1.175,1.175,0,0,0-1.952-1.308,2.252,2.252,0,0,1-4.127,0,1.175,1.175,0,0,0-1.952,1.308C287.569,273.388,291.328,273.41,293.471,270.213Z" transform="translate(-241.7 -233.737)" fill="#fff"/>
    <path id="Path_466" data-name="Path 466" d="M140.944,268.733a1.174,1.174,0,0,0-1.63.322c-1.2,1.79-2.916,1.806-4.127,0a1.175,1.175,0,1,0-1.952,1.308c2.129,3.176,5.887,3.2,8.03,0A1.174,1.174,0,0,0,140.944,268.733Z" transform="translate(-113.338 -233.864)" fill="#fff"/>
  </g>
</svg>
